<svg xmlns="http://www.w3.org/2000/svg" viewBox="0 0 512 512">
  <rect width="512" height="512" rx="96" fill="#102a43"/>
  <path d="M112 352V160c0-26.5 21.5-48 48-48h192c26.5 0 48 21.5 48 48v192c0 26.5-21.5 48-48 48H160c-26.5 0-48-21.5-48-48Z" fill="#fff"/>
  <path d="M152 336V176c0-13.3 10.7-24 24-24h160c13.3 0 24 10.7 24 24v160c0 13.3-10.7 24-24 24H176c-13.3 0-24-10.7-24-24Z" fill="#f3f5f8"/>
  <path d="M180 304h152v34H180zM180 246h152v34H180zM180 188h152v34H180z" fill="#dbe4ee"/>
  <circle cx="214" cy="205" r="18" fill="#a51e2d"/>
  <circle cx="270" cy="205" r="18" fill="#a51e2d"/>
  <circle cx="242" cy="263" r="18" fill="#087f6f"/>
  <circle cx="298" cy="263" r="18" fill="#087f6f"/>
  <circle cx="214" cy="321" r="18" fill="#1e5f91"/>
  <circle cx="270" cy="321" r="18" fill="#1e5f91"/>
  <path d="M96 144h44v48H96c-13.3 0-24-10.7-24-24s10.7-24 24-24ZM372 320h44c13.3 0 24 10.7 24 24s-10.7 24-24 24h-44v-48Z" fill="#a51e2d"/>
</svg>
